<svg width="1363" height="359" viewBox="0 0 1363 359" fill="none" xmlns="http://www.w3.org/2000/svg">
<path d="M145.69 358.56C113.41 358.56 86.59 354.28 65.19 345.73C43.78 337.17 27.73 325.07 17.03 309.43C6.33 293.8 0.65 275.1 0 253.38H88.9C91.52 265.88 97.29 275.03 106.18 280.78C115.06 286.54 128.23 289.43 145.68 289.43C164.46 289.43 178.53 286.79 187.91 281.53C197.29 276.26 201.99 268.19 201.99 257.33C201.99 248.43 198.94 241.35 192.85 236.09C186.75 230.82 177.46 226.39 164.95 222.75C150.082 218.535 135.096 214.751 120.01 211.4C97.29 206.14 77.7 199.3 61.24 190.9C44.77 182.51 32.1 171.24 23.21 157.08C14.32 142.92 9.87 124.65 9.87 102.25C9.87 80.52 15.39 62.09 26.42 46.95C37.44 31.8 53.17 20.2 73.58 12.12C93.99 4.07 118.03 0.02 145.68 0.02C175.98 0.02 201.08 3.97 221 11.88C240.92 19.78 256.07 31.15 266.43 45.96C276.81 60.77 282.65 78.88 283.97 100.28H195.07C193.1 89.74 188.32 81.93 180.75 76.81C173.17 71.71 161.49 69.16 145.69 69.16C128.23 69.16 116.06 71.97 109.14 77.56C102.24 83.16 98.77 90.4 98.77 99.29C98.77 111.48 105.11 120.37 117.79 125.96C130.46 131.56 148.81 136.66 172.85 141.28C189.364 144.552 205.622 149.004 221.5 154.6C236.14 159.88 248.66 166.62 259.03 174.85C269.289 182.951 277.494 193.355 282.98 205.22C288.58 217.24 291.38 231.98 291.38 249.42C291.38 272.14 285.61 291.65 274.08 307.95C262.56 324.25 245.94 336.76 224.21 345.49C202.48 354.19 176.31 358.56 145.69 358.56ZM307.97 352.16V6.43H398.84L494.64 181.74L589.48 6.44H678.37V352.15H589.48V154.1L517.87 285.47H468.48L396.88 154.1V352.15H307.98L307.97 352.16ZM1131.81 141.69C1126.06 141.706 1120.55 143.998 1116.49 148.064C1112.43 152.131 1110.14 157.642 1110.13 163.39C1110.15 169.133 1112.44 174.636 1116.5 178.696C1120.56 182.756 1126.07 185.044 1131.81 185.06C1137.56 185.044 1143.06 182.755 1147.13 178.693C1151.19 174.631 1153.48 169.126 1153.5 163.38C1153.5 151.45 1143.74 141.69 1131.81 141.69ZM1347.18 206.49V142.2H1235.18C1239.59 147.911 1243.32 154.108 1246.32 160.67C1246.32 160.67 1273.76 161.89 1277.24 181.13C1279.51 193.93 1274.63 201.85 1269.84 206.48H1347.18V206.49ZM1110.13 6.45V107.81C1110.3 107.73 1110.48 107.73 1110.74 107.73C1134.34 104.16 1169.17 102.41 1199.05 115.05V74.64H1362.07V6.45H1110.13ZM1192.9 284C1192.9 284 1204.61 307.87 1209.03 323.62C1211.1 331.71 1213.01 341.42 1213.94 352.19H1362.07V284H1192.9ZM1102.12 76.4C1100.92 73.2365 1099.52 70.1505 1097.94 67.16C1089.76 51.4 1078.96 38.6 1065.62 28.66C1052.3 18.82 1036.72 11.6 1018.96 6.98C1001.18 2.36 982.2 0 962.17 0C939.71 0 918.8 3.32 899.39 9.93C880.32 16.2652 862.871 26.7034 848.27 40.51C833.63 54.35 822.23 72.11 813.95 93.88C805.76 115.58 801.67 141.61 801.67 171.92V6.44H712.77V352.15H798.37L798.39 352.18H830.76C802.54 315.33 801.66 264.17 801.66 264.17C801.66 257.87 810.43 256.37 812.55 262.29C813.68 265.47 814.55 267.79 814.96 268.89L815.06 269.15L815.22 269.55C817.22 274.81 819.42 279.81 821.88 284.51C835.38 310.46 854.27 329.37 878.4 341.03C902.6 352.7 930.56 358.53 962.17 358.53H962.36C967.051 358.526 971.594 356.883 975.202 353.885C978.81 350.886 981.257 346.721 982.12 342.11C986.13 320.21 997.22 296.17 1019.21 270.66C1019.21 270.66 982.98 290.26 949.03 283.29L947.97 283.03C946.495 282.772 945.044 282.394 943.63 281.9C941.748 281.448 939.908 280.835 938.13 280.07C937.43 279.9 936.65 279.55 935.96 279.29C927.68 275.81 920.37 270.14 914.01 262.3C913.23 261.35 912.44 260.4 911.84 259.34C910.96 258.21 910.19 256.99 909.4 255.78C898.08 238.35 890.59 211.37 890.5 170.61C890.41 45.71 1004.06 52.69 1034.97 124.97C1034.97 124.97 1042.29 67.76 1102.12 76.38V76.4Z" fill="#698AD6"/>
<path d="M1110.13 104.25C1108.55 95.2666 1106.1 86.4584 1102.81 77.95C1095.5 80.3 1078.08 87.26 1073.98 101.29C1073.98 101.29 1082.53 93.36 1100.9 97.45C1100.9 97.45 1085.84 102.95 1082.88 113.57C1084.18 113.21 1094.72 110.07 1110.13 107.81C1110.3 107.73 1110.48 107.73 1110.74 107.73C1110.59 106.562 1110.38 105.4 1110.13 104.25Z" fill="#698AD6"/>
</svg>
